<?xml version="1.0" encoding="UTF-8"?>
<svg id="b" data-name="Layer_2" xmlns="http://www.w3.org/2000/svg" viewBox="0 0 780.07 160.74">
  <defs>
    <style>
      .d {
        fill: #fff;
      }
    </style>
  </defs>
  <g id="c" data-name="Layer_1">
    <path class="d" d="M198.32,67.76h10.53v23.88c-6.25,5.05-14.98,7.62-23.45,7.62-18.57,0-32.27-12.92-32.27-30.81s13.69-30.81,32.44-30.81c10.01,0,18.4,3.34,24.05,9.76l-7.02,6.85c-4.71-4.71-10.1-6.85-16.52-6.85-12.75,0-21.74,8.64-21.74,21.05s8.99,21.05,21.65,21.05c4.28,0,8.47-.86,12.32-3.08v-18.66ZM232.22,38.49h11.13v50.5h31.33v9.41h-42.45v-59.91ZM290.84,72.29v-33.81h11.13v33.38c0,12.33,5.56,17.63,15.23,17.63s15.15-5.31,15.15-17.63v-33.38h10.96v33.81c0,17.46-9.84,26.96-26.19,26.96s-26.28-9.5-26.28-26.96ZM363.34,68.44c0-17.89,13.69-30.81,32.1-30.81,9.76,0,18.14,3.51,23.71,10.01l-7.19,6.76c-4.36-4.71-9.76-7.02-16-7.02-12.41,0-21.4,8.73-21.4,21.05s8.99,21.05,21.4,21.05c6.25,0,11.64-2.31,16-7.1l7.19,6.85c-5.56,6.5-13.95,10.01-23.79,10.01-18.32,0-32.01-12.92-32.01-30.81ZM433.01,68.44c0-17.72,13.69-30.81,32.27-30.81s32.27,13.01,32.27,30.81-13.69,30.81-32.27,30.81-32.27-13.09-32.27-30.81ZM486.33,68.44c0-12.24-8.99-21.05-21.05-21.05s-21.05,8.82-21.05,21.05,8.99,21.05,21.05,21.05,21.05-8.82,21.05-21.05ZM513.03,92.06l3.85-8.64c4.79,3.85,12.41,6.59,19.77,6.59,9.33,0,13.27-3.34,13.27-7.79,0-12.92-35.6-4.45-35.6-26.7,0-9.67,7.7-17.89,24.13-17.89,7.19,0,14.72,1.88,19.94,5.31l-3.51,8.64c-5.39-3.17-11.3-4.71-16.52-4.71-9.24,0-13.01,3.59-13.01,8.13,0,12.75,35.52,4.45,35.52,26.45,0,9.59-7.79,17.8-24.22,17.8-9.33,0-18.66-2.91-23.62-7.19ZM625.58,89.07v9.33h-44.93v-59.91h43.73v9.33h-32.61v15.58h28.93v9.16h-28.93v16.52h33.81ZM645.78,98.4v-59.91h11.47l25.51,42.28h-6.08l24.99-42.28h11.55v59.91h-12.92l-.17-39.97h2.57l-20.2,33.55h-6.16l-20.46-33.55h2.82v39.97h-12.92ZM736.25,98.4v-59.91h13.95v48.61h29.87v11.3h-43.82ZM210.64,133.12h-11.24l-2.21,5.2h-4.3l10.11-22.47h4.11l10.15,22.47h-4.37l-2.25-5.2ZM209.26,129.85l-4.24-9.82-4.21,9.82h8.44ZM222.71,128.53v-12.68h4.17v12.52c0,4.62,2.09,6.61,5.71,6.61s5.68-1.99,5.68-6.61v-12.52h4.11v12.68c0,6.55-3.69,10.11-9.82,10.11s-9.86-3.56-9.86-10.11ZM266.85,126.83h3.95v8.96c-2.34,1.89-5.62,2.86-8.8,2.86-6.97,0-12.1-4.85-12.1-11.56s5.14-11.56,12.17-11.56c3.76,0,6.9,1.25,9.02,3.66l-2.63,2.57c-1.77-1.77-3.79-2.57-6.2-2.57-4.78,0-8.16,3.24-8.16,7.9s3.37,7.9,8.12,7.9c1.61,0,3.18-.32,4.62-1.16v-7ZM300.2,138.32l-.03-14.9-7.38,12.33h-1.86l-7.38-12.14v14.7h-3.98v-22.47h3.44l8.92,14.9,8.76-14.9h3.43l.03,22.47h-3.95ZM330.33,134.82v3.5h-16.85v-22.47h16.41v3.5h-12.23v5.84h10.85v3.44h-10.85v6.2h12.68ZM358.23,115.85v22.47h-3.43l-12.39-15.22v15.22h-4.14v-22.47h3.44l12.39,15.22v-15.22h4.14ZM372.09,119.38h-7.45v-3.53h19.07v3.53h-7.45v18.94h-4.17v-18.94ZM406.98,134.82v3.5h-16.85v-22.47h16.41v3.5h-12.23v5.84h10.85v3.44h-10.85v6.2h12.68ZM414.9,115.85h9.82c7.29,0,12.26,4.49,12.26,11.24s-4.98,11.24-12.26,11.24h-9.82v-22.47ZM424.54,134.79c5.01,0,8.25-3.05,8.25-7.71s-3.24-7.71-8.25-7.71h-5.46v15.41h5.46ZM476.79,115.85v22.47h-4.17v-9.63h-11.62v9.63h-4.17v-22.47h4.17v9.28h11.62v-9.28h4.17ZM502.95,134.82v3.5h-16.85v-22.47h16.41v3.5h-12.23v5.84h10.85v3.44h-10.85v6.2h12.68ZM525.45,133.12h-11.24l-2.22,5.2h-4.3l10.11-22.47h4.11l10.14,22.47h-4.37l-2.25-5.2ZM524.07,129.85l-4.24-9.82-4.21,9.82h8.44ZM538.19,115.85h4.17v18.94h11.75v3.53h-15.92v-22.47ZM563.16,119.38h-7.45v-3.53h19.07v3.53h-7.45v18.94h-4.17v-18.94ZM601.17,115.85v22.47h-4.17v-9.63h-11.62v9.63h-4.17v-22.47h4.17v9.28h11.62v-9.28h4.17ZM622.6,115.85h4.17v18.94h11.75v3.53h-15.92v-22.47ZM659.84,133.12h-11.24l-2.22,5.2h-4.3l10.11-22.47h4.11l10.14,22.47h-4.37l-2.25-5.2ZM658.46,129.85l-4.24-9.82-4.21,9.82h8.44ZM692.55,132.22c0,3.85-3.02,6.1-8.8,6.1h-11.17v-22.47h10.53c5.39,0,8.28,2.28,8.28,5.84,0,2.31-1.16,4.01-2.89,4.94,2.41.77,4.04,2.66,4.04,5.59ZM676.75,119.12v6.2h5.91c2.89,0,4.53-1.03,4.53-3.08s-1.64-3.11-4.53-3.11h-5.91ZM688.34,131.8c0-2.25-1.7-3.24-4.85-3.24h-6.74v6.49h6.74c3.15,0,4.85-1,4.85-3.24ZM157.44,131.39l2.84-14.93h6.85c1.54,0,2.72.29,3.54.88.82.58,1.23,1.43,1.23,2.54,0,.94-.23,1.73-.7,2.37-.47.64-1.08,1.12-1.84,1.45s-1.61.49-2.54.49l.55-.85c1.19,0,2.14.29,2.85.86.71.58,1.06,1.4,1.06,2.46s-.27,1.95-.82,2.66-1.3,1.23-2.27,1.57c-.97.34-2.06.51-3.28.51h-7.46ZM161.19,128.79h3.89c.91,0,1.62-.18,2.13-.54s.77-.9.77-1.61c0-.55-.19-.95-.57-1.18-.38-.23-.9-.35-1.56-.35h-4.3l.47-2.52h3.69c.58,0,1.07-.08,1.48-.23.41-.16.72-.39.93-.71.22-.32.32-.71.32-1.16,0-.5-.18-.86-.55-1.08-.36-.22-.88-.33-1.54-.33h-3.33l-1.84,9.73ZM177.88,131.39l1.18-6.14.36,2.18-4.18-10.96h3.29l3.18,8.38-1.99.02,6.41-8.41h3.41l-8.31,10.99,1.14-2.2-1.18,6.14h-3.31ZM132.82,87.85c-.16-1.72-.39-3.44-.69-5.15-.53-3.06-1.27-6.08-2.23-9.05-1.32-4.1-3.05-8.1-5.19-11.93-1.97-3.55-4.3-6.95-6.97-10.15-1.28-1.54-2.65-3.03-4.09-4.47l-4.28-4.28-8.56-8.56-47.09,47.09h0c-1.03,1.03-1.91,2.16-2.64,3.35-.33.54-.63,1.1-.9,1.66-.15.31-.28.62-.41.93-.06.16-.13.32-.19.47-.18.48-.34.96-.47,1.44-.05.16-.09.33-.13.49-.62,2.45-.72,5-.31,7.49.03.17.06.33.09.5.06.33.14.66.22.99.04.16.08.33.13.49.12.41.24.81.39,1.21.06.16.12.32.18.48.12.32.26.63.4.94.04.08.07.15.11.23.49,1.02,1.07,2.01,1.76,2.94.53.73,1.13,1.42,1.79,2.08.19.19.38.37.57.55.1.09.19.18.29.26.2.17.4.34.6.5,1.11.89,2.3,1.64,3.55,2.23,4.94,2.35,10.72,2.35,15.66,0,1.25-.6,2.44-1.34,3.55-2.24.2-.16.4-.33.6-.5.29-.26.58-.53.86-.81.38-.38.73-.76,1.07-1.16.17-.2.33-.4.49-.6,0,0,0,0,0,0,.39-.51.76-1.04,1.09-1.58.33-.54.63-1.1.9-1.66.15-.31.28-.62.41-.93.06-.16.13-.32.19-.47.18-.48.34-.96.47-1.44.05-.16.09-.33.13-.49.62-2.45.72-5,.31-7.49-.03-.17-.06-.33-.09-.5-.06-.33-.14-.66-.22-.99-.04-.16-.08-.33-.13-.49-.12-.41-.24-.81-.39-1.21-.06-.16-.12-.32-.18-.48-.12-.32-.26-.63-.4-.94-.04-.08-.07-.16-.11-.23,0,0,0-.01,0-.02l-11.76,11.76h0c-.05.07-.11.13-.16.19-.06.06-.11.12-.17.18-2.36,2.36-6.2,2.36-8.56,0-.26-.26-.49-.54-.69-.82-.29-.41-.52-.86-.69-1.32h0c-.03-.09-.07-.19-.1-.28-.06-.19-.11-.38-.15-.57-.02-.09-.04-.19-.06-.29-.02-.1-.03-.19-.04-.29-.06-.48-.06-.97,0-1.45.01-.1.03-.19.04-.29.02-.1.04-.19.06-.29.06-.3.15-.59.27-.88.05-.12.1-.25.15-.37,0,0,0,0,0,0,.04-.09.08-.18.13-.27,0,0,0,0,0,0,.09-.18.19-.35.3-.51.03-.04.06-.08.09-.13.14-.21.3-.41.48-.6t0,0c.07-.08.14-.15.21-.23h-.01s16.16-16.18,16.16-16.18h.01s4.81-4.8,4.81-4.8c1.67,1.1,3.25,2.39,4.71,3.85,1.47,1.47,2.75,3.05,3.85,4.71,2.52,3.81,4.09,8.06,4.7,12.42.4,2.83.4,5.71,0,8.54-.62,4.36-2.18,8.62-4.7,12.42-1.1,1.67-2.38,3.25-3.85,4.71-1.47,1.47-3.05,2.75-4.71,3.85-3.8,2.52-8.06,4.09-12.42,4.7-2.83.4-5.71.4-8.54,0-4.36-.62-8.62-2.18-12.42-4.7-1.67-1.1-3.24-2.38-4.71-3.85-1.47-1.47-2.75-3.05-3.85-4.71-2.52-3.81-4.08-8.06-4.7-12.42-.4-2.83-.4-5.71,0-8.54.62-4.36,2.18-8.62,4.7-12.42,1.1-1.67,2.39-3.24,3.85-4.71l47.09-47.09-8.56-8.56h0s-47.09,47.09-47.09,47.09c-1.45,1.45-2.78,2.99-3.98,4.59-2.59,3.46-4.58,7.22-5.97,11.15-1.58,4.45-2.39,9.11-2.44,13.78,0,.3,0,.61,0,.91.05,4.67.86,9.33,2.44,13.77,1.39,3.93,3.38,7.7,5.97,11.15,1.2,1.6,2.52,3.13,3.98,4.59,1.45,1.45,2.99,2.78,4.59,3.98,3.46,2.59,7.22,4.58,11.15,5.97,4.45,1.58,9.11,2.39,13.77,2.44.3,0,.61,0,.91,0,4.67-.05,9.33-.86,13.78-2.44,3.93-1.39,7.69-3.38,11.15-5.97,1.6-1.2,3.13-2.52,4.59-3.98,1.45-1.45,2.78-2.99,3.98-4.59,2.59-3.46,4.58-7.22,5.97-11.15,1.58-4.45,2.39-9.11,2.44-13.78,0-.3,0-.61,0-.91-.05-4.67-.86-9.33-2.44-13.77-1.39-3.93-3.38-7.7-5.97-11.15-1.2-1.6-2.52-3.13-3.98-4.59-1.45-1.45-2.99-2.78-4.59-3.98l8.63-8.63c1.56,1.25,3.07,2.6,4.52,4.04,1.45,1.45,2.79,2.96,4.04,4.52,2.64,3.3,4.84,6.83,6.6,10.53,1.97,4.13,3.39,8.45,4.26,12.87.32,1.6.56,3.22.73,4.84.41,3.84.41,7.71,0,11.55-.17,1.62-.42,3.24-.73,4.84-.87,4.41-2.29,8.74-4.26,12.87-1.76,3.69-3.96,7.23-6.6,10.53-1.25,1.56-2.6,3.07-4.04,4.52-1.45,1.45-2.96,2.79-4.52,4.04-3.3,2.64-6.83,4.84-10.53,6.6-4.13,1.97-8.45,3.39-12.87,4.26-1.6.32-3.22.56-4.84.73-3.84.41-7.71.41-11.55,0-1.62-.17-3.24-.42-4.84-.73-4.42-.87-8.74-2.29-12.87-4.26-3.69-1.76-7.23-3.96-10.53-6.6-1.56-1.25-3.07-2.6-4.52-4.04-1.45-1.45-2.79-2.96-4.04-4.52-2.64-3.3-4.84-6.83-6.6-10.53-1.97-4.13-3.39-8.45-4.26-12.87-.32-1.6-.56-3.22-.73-4.84-.41-3.84-.41-7.71,0-11.55.17-1.62.42-3.24.73-4.84.87-4.41,2.29-8.74,4.26-12.87,1.76-3.69,3.96-7.23,6.6-10.53,1.25-1.56,2.6-3.07,4.04-4.52L75.12,8.56h0L66.56,0,19.47,47.09c-1.44,1.44-2.8,2.94-4.09,4.47-2.67,3.2-4.99,6.6-6.97,10.15-2.14,3.83-3.87,7.83-5.19,11.93-.96,2.97-1.7,6-2.23,9.05-.29,1.71-.53,3.42-.69,5.15-.4,4.21-.4,8.45,0,12.66.16,1.72.4,3.44.69,5.15.53,3.05,1.27,6.08,2.23,9.05,1.32,4.11,3.06,8.1,5.19,11.93,1.98,3.54,4.3,6.94,6.97,10.15,1.28,1.53,2.65,3.03,4.09,4.47s2.94,2.81,4.48,4.09c3.2,2.67,6.61,5,10.15,6.98,3.83,2.14,7.83,3.87,11.93,5.19,2.97.96,6,1.7,9.05,2.23,1.71.3,3.42.53,5.15.69,4.21.4,8.45.4,12.66,0,1.72-.17,3.44-.4,5.15-.69,3.06-.53,6.08-1.27,9.05-2.23,4.11-1.32,8.11-3.06,11.93-5.19,3.54-1.98,6.94-4.3,10.15-6.98l4.47-4.09c1.44-1.44,2.8-2.94,4.09-4.47,2.67-3.21,5-6.61,6.97-10.15,2.14-3.83,3.87-7.83,5.19-11.93.96-2.97,1.7-6,2.23-9.05.3-1.71.53-3.43.69-5.15.4-4.21.4-8.45,0-12.66Z"/>
  </g>
</svg>