<?xml version="1.0" encoding="UTF-8"?>
<svg xmlns="http://www.w3.org/2000/svg" viewBox="0 0 712.04 432.99">
  <defs>
    <style>
      .d {
        fill: none;
      }

      .e {
        fill: #5f2db8;
      }

      .e, .f {
        mix-blend-mode: multiply;
        opacity: .3;
      }

      .f {
        fill: #af366a;
      }

      .g {
        fill: #4d4d4d;
      }

      .h {
        isolation: isolate;
      }

      .i {
        fill: #7826eb;
      }

      .j {
        fill: #fff;
      }

      .k {
        fill: #f83289;
      }
    </style>
  </defs>
  <g class="h">
    <g id="b" data-name="Layer_2">
      <g id="c" data-name="Layer_1">
        <g>
          <rect class="d" y="0" width="712.04" height="432.99"/>
          <g>
            <g>
              <path class="i" d="M67.76,317.61h10.53v23.88c-6.25,5.05-14.98,7.62-23.45,7.62-18.57,0-32.27-12.92-32.27-30.81s13.69-30.81,32.44-30.81c10.01,0,18.4,3.34,24.05,9.76l-7.02,6.85c-4.71-4.71-10.1-6.85-16.52-6.85-12.75,0-21.74,8.64-21.74,21.05s8.99,21.05,21.65,21.05c4.28,0,8.47-.86,12.32-3.08v-18.66ZM101.65,288.34h11.13v50.5h31.33v9.41h-42.45v-59.91ZM160.28,322.14v-33.81h11.12v33.38c0,12.33,5.56,17.63,15.23,17.63s15.15-5.31,15.15-17.63v-33.38h10.96v33.81c0,17.46-9.84,26.96-26.19,26.96s-26.27-9.5-26.27-26.96ZM232.77,318.29c0-17.89,13.69-30.81,32.09-30.81,9.76,0,18.14,3.51,23.71,10.01l-7.19,6.76c-4.37-4.71-9.76-7.02-16-7.02-12.41,0-21.4,8.73-21.4,21.05s8.99,21.05,21.4,21.05c6.25,0,11.64-2.31,16-7.1l7.19,6.85c-5.56,6.5-13.95,10.01-23.79,10.01-18.32,0-32.01-12.92-32.01-30.81ZM302.44,318.29c0-17.72,13.69-30.81,32.27-30.81s32.27,13.01,32.27,30.81-13.69,30.81-32.27,30.81-32.27-13.09-32.27-30.81ZM355.76,318.29c0-12.24-8.99-21.05-21.05-21.05s-21.05,8.82-21.05,21.05,8.99,21.05,21.05,21.05,21.05-8.82,21.05-21.05ZM382.47,341.91l3.85-8.64c4.79,3.85,12.41,6.59,19.77,6.59,9.33,0,13.27-3.34,13.27-7.79,0-12.92-35.6-4.45-35.6-26.7,0-9.67,7.7-17.89,24.14-17.89,7.19,0,14.72,1.88,19.94,5.31l-3.51,8.64c-5.39-3.17-11.3-4.71-16.52-4.71-9.24,0-13.01,3.59-13.01,8.13,0,12.75,35.52,4.45,35.52,26.45,0,9.59-7.79,17.8-24.22,17.8-9.33,0-18.66-2.91-23.62-7.19ZM495.02,338.92v9.33h-44.93v-59.91h43.73v9.33h-32.61v15.58h28.93v9.16h-28.93v16.52h33.81ZM513.67,313.5h23.54v8.9h-23.54v-8.9ZM614.58,348.25l-.09-39.71-19.68,32.87h-4.96l-19.69-32.35v39.2h-10.61v-59.91h9.16l23.79,39.71,23.36-39.71h9.16l.09,59.91h-10.53ZM650.02,288.34h11.13v50.5h31.33v9.41h-42.45v-59.91Z"/>
              <path class="g" d="M141.04,396.97h-11.24l-2.22,5.2h-4.3l10.11-22.47h4.11l10.14,22.47h-4.37l-2.25-5.2ZM139.66,393.7l-4.24-9.82-4.21,9.82h8.44ZM153.11,392.38v-12.68h4.17v12.52c0,4.62,2.09,6.61,5.71,6.61s5.68-1.99,5.68-6.61v-12.52h4.11v12.68c0,6.55-3.69,10.11-9.82,10.11s-9.86-3.56-9.86-10.11ZM197.24,390.68h3.95v8.96c-2.34,1.89-5.62,2.86-8.8,2.86-6.97,0-12.1-4.85-12.1-11.56s5.14-11.56,12.17-11.56c3.76,0,6.9,1.25,9.02,3.66l-2.63,2.57c-1.77-1.77-3.79-2.57-6.2-2.57-4.78,0-8.16,3.24-8.16,7.9s3.37,7.9,8.12,7.9c1.61,0,3.18-.32,4.62-1.16v-7ZM230.59,402.17l-.03-14.9-7.38,12.33h-1.86l-7.38-12.14v14.7h-3.98v-22.47h3.43l8.92,14.9,8.76-14.9h3.43l.03,22.47h-3.95ZM260.73,398.67v3.5h-16.85v-22.47h16.41v3.5h-12.23v5.84h10.85v3.44h-10.85v6.2h12.68ZM288.62,379.7v22.47h-3.44l-12.39-15.22v15.22h-4.14v-22.47h3.43l12.39,15.22v-15.22h4.14ZM302.49,383.23h-7.45v-3.53h19.07v3.53h-7.45v18.94h-4.17v-18.94ZM337.38,398.67v3.5h-16.86v-22.47h16.41v3.5h-12.23v5.84h10.85v3.44h-10.85v6.2h12.68ZM345.3,379.7h9.82c7.29,0,12.26,4.49,12.26,11.24s-4.98,11.24-12.26,11.24h-9.82v-22.47ZM354.93,398.64c5.01,0,8.25-3.05,8.25-7.71s-3.24-7.71-8.25-7.71h-5.46v15.41h5.46ZM407.19,379.7v22.47h-4.17v-9.63h-11.62v9.63h-4.17v-22.47h4.17v9.28h11.62v-9.28h4.17ZM433.35,398.67v3.5h-16.85v-22.47h16.4v3.5h-12.23v5.84h10.85v3.44h-10.85v6.2h12.68ZM455.85,396.97h-11.24l-2.21,5.2h-4.3l10.11-22.47h4.11l10.14,22.47h-4.37l-2.25-5.2ZM454.47,393.7l-4.24-9.82-4.21,9.82h8.44ZM468.59,379.7h4.17v18.94h11.75v3.53h-15.92v-22.47ZM493.56,383.23h-7.45v-3.53h19.07v3.53h-7.45v18.94h-4.17v-18.94ZM531.57,379.7v22.47h-4.17v-9.63h-11.62v9.63h-4.17v-22.47h4.17v9.28h11.62v-9.28h4.17ZM553,379.7h4.17v18.94h11.75v3.53h-15.92v-22.47ZM590.24,396.97h-11.24l-2.21,5.2h-4.3l10.11-22.47h4.11l10.15,22.47h-4.37l-2.25-5.2ZM588.86,393.7l-4.24-9.82-4.21,9.82h8.44ZM622.94,396.07c0,3.85-3.02,6.1-8.8,6.1h-11.17v-22.47h10.53c5.39,0,8.28,2.28,8.28,5.84,0,2.31-1.16,4.01-2.89,4.94,2.41.77,4.04,2.66,4.04,5.59ZM607.15,382.97v6.2h5.91c2.89,0,4.53-1.03,4.53-3.08s-1.64-3.11-4.53-3.11h-5.91ZM618.74,395.65c0-2.25-1.7-3.24-4.85-3.24h-6.74v6.49h6.74c3.15,0,4.85-1,4.85-3.24ZM84.45,395.24l2.84-14.93h6.85c1.54,0,2.72.29,3.54.88s1.23,1.43,1.23,2.54c0,.94-.23,1.73-.7,2.37-.47.64-1.08,1.12-1.84,1.45s-1.61.49-2.54.49l.55-.85c1.19,0,2.14.29,2.85.86.71.58,1.06,1.4,1.06,2.46s-.27,1.95-.82,2.66c-.55.7-1.3,1.23-2.27,1.57-.97.34-2.06.51-3.28.51h-7.46ZM88.2,392.64h3.89c.91,0,1.62-.18,2.13-.54s.77-.9.77-1.61c0-.55-.19-.95-.57-1.18-.38-.23-.9-.35-1.56-.35h-4.3l.47-2.52h3.69c.58,0,1.08-.08,1.48-.23.41-.16.72-.39.93-.71.21-.32.32-.71.32-1.16,0-.5-.18-.86-.55-1.08s-.88-.33-1.54-.33h-3.33l-1.85,9.73ZM104.48,395.24l1.18-6.14.36,2.18-4.18-10.96h3.29l3.18,8.38-1.99.02,6.41-8.41h3.41l-8.31,10.99,1.14-2.2-1.18,6.14h-3.31Z"/>
            </g>
            <g>
              <path class="j" d="M307.53,193.12c1.71,2.28,3.6,4.48,5.68,6.55,2.08,2.08,4.27,3.97,6.55,5.68,4.94,3.7,10.32,6.54,15.93,8.53,6.35,2.26,13.01,3.42,19.68,3.49.43,0,.86,0,1.3,0,6.67-.07,13.33-1.23,19.68-3.49,5.61-1.99,10.99-4.84,15.93-8.53,2.28-1.71,4.48-3.6,6.55-5.68,2.08-2.08,3.97-4.27,5.68-6.55,3.7-4.94,6.54-10.32,8.53-15.93,2.25-6.35,3.42-13.01,3.49-19.68,0-.43,0-.86,0-1.3-.07-6.67-1.23-13.33-3.49-19.68-1.99-5.62-4.83-10.99-8.53-15.93-1.71-2.28-3.6-4.48-5.68-6.55-2.08-2.08-4.27-3.97-6.55-5.68l12.33-12.33c2.23,1.78,4.39,3.71,6.45,5.78,2.07,2.07,3.99,4.22,5.78,6.45,3.77,4.71,6.91,9.76,9.43,15.04,2.81,5.9,4.84,12.08,6.08,18.38.45,2.29.8,4.6,1.05,6.91.58,5.48.58,11.02,0,16.5-.24,2.32-.59,4.62-1.05,6.91-1.24,6.31-3.27,12.49-6.08,18.38-2.51,5.28-5.66,10.33-9.43,15.04-1.78,2.23-3.71,4.39-5.78,6.45-2.07,2.07-4.22,3.99-6.45,5.78-4.71,3.77-9.76,6.91-15.04,9.43-5.9,2.81-12.08,4.84-18.38,6.08-2.29.45-4.6.8-6.91,1.05-5.48.58-11.02.58-16.5,0-2.32-.24-4.62-.59-6.91-1.05-6.31-1.24-12.49-3.27-18.38-6.08-5.28-2.51-10.33-5.66-15.04-9.43-2.23-1.78-4.39-3.71-6.45-5.78-2.07-2.07-3.99-4.22-5.78-6.45-3.77-4.71-6.91-9.76-9.43-15.04-2.81-5.9-4.84-12.08-6.08-18.38-.45-2.29-.8-4.6-1.05-6.91-.58-5.48-.58-11.02,0-16.5.24-2.32.59-4.62,1.05-6.91,1.24-6.31,3.27-12.49,6.08-18.38,2.51-5.28,5.66-10.33,9.43-15.04,1.78-2.23,3.71-4.39,5.78-6.45l67.27-67.27,12.23,12.23-67.27,67.27c-2.08,2.08-3.97,4.27-5.68,6.55-3.7,4.94-6.54,10.32-8.53,15.93-2.25,6.35-3.42,13.01-3.49,19.68,0,.43,0,.86,0,1.3.07,6.67,1.23,13.33,3.49,19.68,1.99,5.62,4.83,10.99,8.53,15.93Z"/>
              <path class="i" d="M319.94,180.71c1.57,2.38,3.41,4.64,5.5,6.73,2.09,2.09,4.35,3.93,6.73,5.5,5.44,3.6,11.51,5.84,17.75,6.72,4.04.57,8.16.57,12.2,0,6.23-.88,12.31-3.12,17.75-6.72,2.38-1.57,4.64-3.41,6.73-5.5,2.09-2.09,3.93-4.35,5.5-6.73,3.6-5.44,5.84-11.51,6.72-17.75.57-4.05.57-8.16,0-12.2-.88-6.23-3.12-12.31-6.72-17.75-1.57-2.38-3.41-4.64-5.5-6.73-2.09-2.09-4.35-3.93-6.73-5.5l12.41-12.41c2.28,1.71,4.48,3.6,6.55,5.68,2.08,2.08,3.97,4.27,5.68,6.55,3.7,4.94,6.54,10.32,8.53,15.93,2.26,6.35,3.42,13.01,3.49,19.68,0,.43,0,.86,0,1.3-.07,6.67-1.23,13.33-3.49,19.68-1.99,5.61-4.84,10.99-8.53,15.93-1.71,2.28-3.6,4.48-5.68,6.55-2.08,2.08-4.27,3.97-6.55,5.68-4.94,3.7-10.32,6.54-15.93,8.53-6.35,2.25-13.01,3.42-19.68,3.49-.43,0-.86,0-1.3,0-6.67-.07-13.33-1.23-19.68-3.49-5.62-1.99-10.99-4.83-15.93-8.53-2.28-1.71-4.48-3.6-6.55-5.68-2.08-2.08-3.97-4.27-5.68-6.55-3.7-4.94-6.54-10.32-8.53-15.93-2.26-6.35-3.42-13.01-3.49-19.68,0-.43,0-.86,0-1.3.07-6.67,1.23-13.33,3.49-19.68,1.99-5.61,4.84-10.99,8.53-15.93,1.71-2.28,3.6-4.48,5.68-6.55l67.27-67.27,12.23,12.23-67.27,67.27c-2.09,2.09-3.93,4.35-5.5,6.73-3.6,5.44-5.84,11.51-6.72,17.75-.57,4.05-.57,8.16,0,12.2.88,6.23,3.12,12.31,6.72,17.75Z"/>
              <path class="e" d="M404.51,120.61l-12.41,12.41c-1.57-2.38-3.41-4.64-5.5-6.73-2.1-2.1-4.35-3.93-6.73-5.5l12.41-12.41c1.14.86,2.26,1.76,3.35,2.7,1.09.95,2.16,1.94,3.2,2.98,2.08,2.07,3.97,4.26,5.68,6.55Z"/>
              <path class="k" d="M450.69,165.91c-.23,2.46-.56,4.91-.99,7.35-.75,4.37-1.82,8.69-3.18,12.94-1.89,5.86-4.37,11.57-7.42,17.04-2.82,5.07-6.14,9.92-9.96,14.5-1.83,2.2-3.78,4.33-5.84,6.39-2.06,2.07-4.2,4.01-6.39,5.85-4.58,3.81-9.44,7.13-14.5,9.96-5.48,3.05-11.19,5.52-17.05,7.41-4.25,1.37-8.57,2.43-12.93,3.19-2.44.43-4.9.75-7.36.99-6.02.57-12.08.57-18.09,0-2.47-.24-4.92-.56-7.36-.99-4.37-.76-8.69-1.82-12.93-3.19-5.86-1.89-11.58-4.36-17.05-7.41-5.06-2.83-9.92-6.15-14.5-9.96-2.2-1.84-4.33-3.78-6.39-5.85-2.06-2.06-4.01-4.19-5.84-6.39-3.82-4.58-7.14-9.43-9.96-14.5-3.06-5.47-5.53-11.18-7.42-17.04-1.37-4.25-2.43-8.57-3.19-12.94-.42-2.44-.75-4.89-.98-7.35-.57-6.02-.57-12.08,0-18.1.23-2.46.56-4.91.98-7.35.76-4.37,1.82-8.69,3.19-12.93,1.89-5.87,4.36-11.58,7.42-17.05,2.82-5.07,6.14-9.92,9.96-14.5,1.83-2.2,3.78-4.33,5.84-6.39l67.27-67.28,12.24,12.24-67.28,67.27c-2.07,2.07-3.99,4.22-5.78,6.45-3.77,4.71-6.91,9.76-9.42,15.04-2.81,5.9-4.84,12.08-6.08,18.39-.45,2.28-.8,4.59-1.05,6.91-.58,5.48-.58,11.02,0,16.5.25,2.32.6,4.63,1.05,6.92,1.24,6.3,3.27,12.49,6.08,18.38,2.51,5.28,5.65,10.33,9.42,15.04,1.79,2.23,3.71,4.39,5.78,6.45,2.07,2.07,4.22,4,6.46,5.78,4.71,3.77,9.76,6.91,15.03,9.43,5.9,2.81,12.08,4.83,18.39,6.07,2.29.46,4.6.81,6.91,1.05,5.49.58,11.02.58,16.5,0,2.32-.24,4.63-.59,6.92-1.05,6.31-1.24,12.49-3.26,18.38-6.07,5.28-2.52,10.33-5.66,15.04-9.43,2.23-1.78,4.39-3.71,6.46-5.78,2.06-2.06,3.99-4.22,5.77-6.45,3.77-4.71,6.91-9.76,9.43-15.04,2.81-5.9,4.83-12.08,6.08-18.38.45-2.29.8-4.6,1.04-6.92.58-5.48.58-11.02,0-16.5-.24-2.32-.59-4.63-1.04-6.91-1.24-6.31-3.27-12.49-6.08-18.39-2.52-5.28-5.66-10.33-9.43-15.04-1.78-2.23-3.71-4.38-5.77-6.45-2.07-2.07-4.23-3.99-6.46-5.78l-24.74,24.74-6.87,6.88-.02-.03-23.09,23.09.02.02c-.11.11-.21.22-.31.33-.25.27-.47.56-.68.85-.04.06-.08.12-.12.18-.16.24-.3.49-.43.74h-.01c-.06.12-.12.25-.18.38-.08.17-.16.35-.23.53-.16.41-.28.83-.38,1.26-.02.13-.05.27-.07.4-.03.14-.05.28-.06.42-.09.68-.09,1.38,0,2.07.01.13.03.27.06.41.02.13.05.27.07.41.06.27.14.54.22.8.05.14.09.27.14.4.25.66.58,1.29.99,1.88.29.41.62.81.99,1.18,1.69,1.69,3.9,2.53,6.12,2.53s4.42-.84,6.11-2.53c.08-.09.17-.17.24-.26.09-.09.17-.18.25-.27l16.79-16.8s.01.02.02.03c.05.11.1.22.15.33.21.44.4.89.57,1.34.09.23.18.45.26.68.21.57.39,1.15.55,1.73.07.23.13.46.19.69.12.47.22.94.32,1.41.04.24.09.47.12.71.59,3.55.45,7.2-.44,10.7-.06.23-.12.47-.19.7-.19.69-.42,1.38-.67,2.06-.09.23-.18.46-.27.68-.18.45-.38.9-.59,1.34-.39.81-.82,1.6-1.29,2.37-.48.78-1,1.53-1.56,2.26h0c-.23.3-.46.59-.7.87-.48.57-.98,1.12-1.52,1.66-.4.4-.81.79-1.23,1.16-.28.24-.57.48-.86.71-1.59,1.28-3.29,2.35-5.07,3.2-7.05,3.36-15.32,3.36-22.37,0-1.78-.85-3.49-1.92-5.08-3.2-.28-.23-.57-.47-.85-.71-.14-.13-.28-.25-.42-.38-.28-.25-.55-.51-.81-.78-.94-.94-1.79-1.93-2.56-2.97-.98-1.33-1.82-2.74-2.51-4.2-.05-.11-.11-.22-.16-.33-.2-.44-.39-.89-.57-1.34-.09-.22-.17-.45-.25-.68-.21-.57-.39-1.14-.56-1.72-.06-.24-.13-.47-.18-.7-.12-.47-.23-.94-.32-1.41-.05-.24-.09-.47-.13-.71-.59-3.55-.44-7.2.45-10.7.05-.23.12-.46.18-.7.2-.69.42-1.38.68-2.06.09-.23.18-.45.27-.68.18-.45.38-.89.59-1.33.38-.81.81-1.61,1.29-2.38,1.04-1.7,2.3-3.31,3.78-4.79l67.27-67.27,12.23,12.23,6.12,6.12c2.06,2.06,4.01,4.19,5.84,6.39,3.82,4.58,7.14,9.43,9.96,14.5,3.05,5.47,5.53,11.18,7.42,17.05,1.36,4.24,2.43,8.56,3.18,12.93.43,2.44.76,4.89.99,7.35.57,6.02.57,12.08,0,18.1Z"/>
              <path class="f" d="M416.84,108.28h0c-1.78-2.24-3.71-4.39-5.77-6.46h-.01c-.1-.11-.2-.21-.3-.3-.41-.42-.83-.83-1.26-1.22-1.06-1-2.13-1.96-3.23-2.89-.55-.47-1.1-.92-1.66-1.37l12.57-12.57,6.12,6.12c2.06,2.06,4.01,4.19,5.84,6.39l-12.3,12.3Z"/>
              <path class="j" d="M398.82,150.76c.57,4.04.57,8.16,0,12.2-.88,6.23-3.12,12.31-6.72,17.75-1.57,2.38-3.41,4.64-5.5,6.73s-4.35,3.93-6.73,5.5c-5.44,3.6-11.51,5.84-17.75,6.72-4.05.57-8.16.57-12.2,0-6.23-.88-12.31-3.12-17.75-6.72-2.38-1.57-4.64-3.41-6.73-5.5-2.09-2.09-3.93-4.35-5.5-6.73-3.6-5.44-5.83-11.51-6.72-17.75-.57-4.04-.57-8.16,0-12.2.88-6.23,3.12-12.31,6.72-17.75,1.57-2.38,3.41-4.64,5.5-6.73l67.27-67.27,12.23,12.23-67.27,67.27h0c-1.47,1.47-2.73,3.08-3.78,4.78-.48.77-.9,1.57-1.29,2.38-.21.44-.41.89-.59,1.34-.09.22-.18.45-.27.68-.26.68-.48,1.37-.68,2.06-.07.23-.13.47-.19.7-.89,3.5-1.03,7.15-.44,10.7.04.24.08.47.13.71.09.47.2.94.31,1.41.06.23.12.47.19.7.16.58.35,1.16.55,1.72.08.23.17.45.26.68.18.45.37.9.57,1.34.05.11.1.22.16.33.7,1.46,1.53,2.86,2.52,4.2.76,1.04,1.61,2.03,2.55,2.97.27.27.54.53.82.78.14.13.28.25.42.38.28.25.57.49.85.72,1.59,1.28,3.29,2.34,5.08,3.19,7.05,3.36,15.32,3.36,22.37,0,1.78-.85,3.49-1.91,5.07-3.19.29-.23.57-.47.85-.72.42-.37.83-.76,1.23-1.16.54-.54,1.04-1.09,1.52-1.66.24-.28.47-.57.7-.86,0,0,0,0,0,0,.56-.73,1.08-1.49,1.56-2.26.48-.77.9-1.57,1.29-2.38.21-.44.41-.89.59-1.34.09-.22.18-.45.27-.68.25-.68.48-1.37.68-2.06.07-.23.13-.47.19-.7.89-3.5,1.03-7.15.44-10.7-.04-.24-.08-.47-.13-.71-.09-.47-.2-.94-.31-1.41-.06-.23-.12-.47-.19-.7-.16-.58-.35-1.16-.55-1.72-.08-.23-.17-.45-.26-.68-.18-.45-.37-.9-.57-1.34-.05-.11-.1-.22-.16-.33,0,0,0-.02-.01-.03l-16.8,16.8h-.01c-.08.1-.15.19-.23.27-.08.09-.16.17-.25.26-3.38,3.38-8.85,3.38-12.23,0-.37-.37-.7-.76-.99-1.18-.41-.59-.74-1.22-.99-1.88h0c-.05-.13-.1-.26-.14-.4-.09-.27-.16-.54-.22-.81-.03-.13-.06-.27-.08-.41-.02-.14-.04-.27-.06-.41-.08-.69-.08-1.38,0-2.07.02-.14.04-.28.06-.41.02-.14.05-.27.08-.41.09-.43.22-.85.38-1.26.07-.18.14-.35.22-.53,0,0,0,0,0,0,.06-.13.12-.25.19-.38,0,0,0,0,0,0,.13-.25.28-.49.43-.74.04-.06.08-.12.12-.18.21-.3.43-.58.68-.85t0,0c.1-.11.2-.22.3-.32l-.02-.02,23.09-23.09.02.02,6.87-6.87c2.38,1.57,4.64,3.41,6.73,5.5s3.93,4.35,5.5,6.73c3.6,5.44,5.84,11.51,6.72,17.75Z"/>
            </g>
          </g>
        </g>
      </g>
    </g>
  </g>
</svg>