<?xml version="1.0" encoding="UTF-8"?>
<svg xmlns="http://www.w3.org/2000/svg" viewBox="0 0 874.65 235.83">
  <defs>
    <style>
      .d {
        fill: none;
      }

      .e {
        fill: #5f2db8;
      }

      .e, .f {
        mix-blend-mode: multiply;
        opacity: .3;
      }

      .f {
        fill: #af366a;
      }

      .g {
        fill: #4d4d4d;
      }

      .h {
        isolation: isolate;
      }

      .i {
        fill: #7826eb;
      }

      .j {
        fill: #fff;
      }

      .k {
        fill: #f83289;
      }
    </style>
  </defs>
  <g class="h">
    <g id="b" data-name="Layer_2">
      <g id="c" data-name="Layer_1">
        <g>
          <rect class="d" width="874.65" height="235.83"/>
          <g>
            <g>
              <path class="i" d="M223.75,105.3h10.53v23.88c-6.25,5.05-14.98,7.62-23.45,7.62-18.57,0-32.27-12.92-32.27-30.81s13.69-30.81,32.44-30.81c10.01,0,18.4,3.34,24.05,9.76l-7.02,6.85c-4.71-4.71-10.1-6.85-16.52-6.85-12.75,0-21.74,8.64-21.74,21.05s8.99,21.05,21.65,21.05c4.28,0,8.47-.86,12.32-3.08v-18.66ZM257.64,76.03h11.13v50.5h31.33v9.41h-42.45v-59.91ZM316.27,109.84v-33.81h11.13v33.38c0,12.33,5.56,17.63,15.23,17.63s15.15-5.31,15.15-17.63v-33.38h10.96v33.81c0,17.46-9.84,26.96-26.19,26.96s-26.28-9.5-26.28-26.96ZM388.76,105.99c0-17.89,13.69-30.81,32.1-30.81,9.76,0,18.14,3.51,23.71,10.01l-7.19,6.76c-4.36-4.71-9.76-7.02-16-7.02-12.41,0-21.4,8.73-21.4,21.05s8.99,21.05,21.4,21.05c6.25,0,11.64-2.31,16-7.1l7.19,6.85c-5.56,6.5-13.95,10.01-23.79,10.01-18.32,0-32.01-12.92-32.01-30.81ZM458.43,105.99c0-17.72,13.69-30.81,32.27-30.81s32.27,13.01,32.27,30.81-13.69,30.81-32.27,30.81-32.27-13.09-32.27-30.81ZM511.75,105.99c0-12.24-8.99-21.05-21.05-21.05s-21.05,8.82-21.05,21.05,8.99,21.05,21.05,21.05,21.05-8.82,21.05-21.05ZM538.45,129.61l3.85-8.64c4.79,3.85,12.41,6.59,19.77,6.59,9.33,0,13.27-3.34,13.27-7.79,0-12.92-35.6-4.45-35.6-26.7,0-9.67,7.7-17.89,24.13-17.89,7.19,0,14.72,1.88,19.94,5.31l-3.51,8.64c-5.39-3.17-11.3-4.71-16.52-4.71-9.24,0-13.01,3.59-13.01,8.13,0,12.75,35.52,4.45,35.52,26.45,0,9.59-7.79,17.8-24.22,17.8-9.33,0-18.66-2.91-23.62-7.19ZM651,126.61v9.33h-44.93v-59.91h43.73v9.33h-32.61v15.58h28.93v9.16h-28.93v16.52h33.81ZM669.66,101.19h23.54v8.9h-23.54v-8.9ZM770.57,135.94l-.09-39.71-19.68,32.87h-4.96l-19.69-32.35v39.2h-10.61v-59.91h9.16l23.79,39.71,23.36-39.71h9.16l.09,59.91h-10.53ZM806,76.03h11.13v50.5h31.33v9.41h-42.45v-59.91Z"/>
              <path class="g" d="M240.65,170.67h-11.24l-2.21,5.2h-4.3l10.11-22.47h4.11l10.15,22.47h-4.37l-2.25-5.2ZM239.27,167.39l-4.24-9.82-4.21,9.82h8.44ZM252.71,166.07v-12.68h4.17v12.52c0,4.62,2.09,6.61,5.71,6.61s5.68-1.99,5.68-6.61v-12.52h4.11v12.68c0,6.55-3.69,10.11-9.82,10.11s-9.86-3.56-9.86-10.11ZM296.85,164.37h3.95v8.96c-2.34,1.89-5.62,2.86-8.8,2.86-6.97,0-12.1-4.85-12.1-11.56s5.14-11.56,12.17-11.56c3.76,0,6.9,1.25,9.02,3.66l-2.63,2.57c-1.77-1.77-3.79-2.57-6.2-2.57-4.78,0-8.16,3.24-8.16,7.9s3.37,7.9,8.12,7.9c1.61,0,3.18-.32,4.62-1.16v-7ZM330.2,175.87l-.03-14.9-7.38,12.33h-1.86l-7.38-12.14v14.7h-3.98v-22.47h3.44l8.92,14.9,8.76-14.9h3.43l.03,22.47h-3.95ZM360.34,172.37v3.5h-16.85v-22.47h16.41v3.5h-12.23v5.84h10.85v3.44h-10.85v6.2h12.68ZM388.23,153.39v22.47h-3.43l-12.39-15.22v15.22h-4.14v-22.47h3.44l12.39,15.22v-15.22h4.14ZM402.09,156.93h-7.45v-3.53h19.07v3.53h-7.45v18.94h-4.17v-18.94ZM436.99,172.37v3.5h-16.85v-22.47h16.41v3.5h-12.23v5.84h10.85v3.44h-10.85v6.2h12.68ZM444.91,153.39h9.82c7.29,0,12.26,4.49,12.26,11.24s-4.98,11.24-12.26,11.24h-9.82v-22.47ZM454.54,172.34c5.01,0,8.25-3.05,8.25-7.71s-3.24-7.71-8.25-7.71h-5.46v15.41h5.46ZM506.8,153.39v22.47h-4.17v-9.63h-11.62v9.63h-4.17v-22.47h4.17v9.28h11.62v-9.28h4.17ZM532.96,172.37v3.5h-16.85v-22.47h16.41v3.5h-12.23v5.84h10.85v3.44h-10.85v6.2h12.68ZM555.46,170.67h-11.24l-2.22,5.2h-4.3l10.11-22.47h4.11l10.14,22.47h-4.37l-2.25-5.2ZM554.07,167.39l-4.24-9.82-4.21,9.82h8.44ZM568.19,153.39h4.17v18.94h11.75v3.53h-15.92v-22.47ZM593.17,156.93h-7.45v-3.53h19.07v3.53h-7.45v18.94h-4.17v-18.94ZM631.17,153.39v22.47h-4.17v-9.63h-11.62v9.63h-4.17v-22.47h4.17v9.28h11.62v-9.28h4.17ZM652.61,153.39h4.17v18.94h11.75v3.53h-15.92v-22.47ZM689.84,170.67h-11.24l-2.22,5.2h-4.3l10.11-22.47h4.11l10.14,22.47h-4.37l-2.25-5.2ZM688.46,167.39l-4.24-9.82-4.21,9.82h8.44ZM722.55,169.77c0,3.85-3.02,6.1-8.8,6.1h-11.17v-22.47h10.53c5.39,0,8.28,2.28,8.28,5.84,0,2.31-1.16,4.01-2.89,4.94,2.41.77,4.04,2.66,4.04,5.59ZM706.76,156.67v6.2h5.91c2.89,0,4.53-1.03,4.53-3.08s-1.64-3.11-4.53-3.11h-5.91ZM718.35,169.35c0-2.25-1.7-3.24-4.85-3.24h-6.74v6.49h6.74c3.15,0,4.85-1,4.85-3.24ZM183.44,168.93l2.84-14.93h6.85c1.54,0,2.72.29,3.54.88.82.58,1.23,1.43,1.23,2.54,0,.94-.23,1.73-.7,2.37-.47.64-1.08,1.12-1.84,1.45s-1.61.49-2.54.49l.55-.85c1.19,0,2.14.29,2.85.86.71.58,1.06,1.4,1.06,2.46s-.27,1.95-.82,2.66-1.3,1.23-2.27,1.57c-.97.34-2.06.51-3.28.51h-7.46ZM187.19,166.33h3.89c.91,0,1.62-.18,2.13-.54s.77-.9.77-1.61c0-.55-.19-.95-.57-1.18-.38-.23-.9-.35-1.56-.35h-4.3l.47-2.52h3.69c.58,0,1.07-.08,1.48-.23.41-.16.72-.39.93-.71.22-.32.32-.71.32-1.16,0-.5-.18-.86-.55-1.08-.36-.22-.88-.33-1.54-.33h-3.33l-1.84,9.73ZM203.88,168.93l1.18-6.14.36,2.18-4.18-10.96h3.29l3.18,8.38-1.99.02,6.41-8.41h3.41l-8.31,10.99,1.14-2.2-1.18,6.14h-3.31Z"/>
            </g>
            <g>
              <path class="j" d="M58.04,157.1c1.2,1.6,2.52,3.13,3.98,4.59s2.99,2.78,4.59,3.98c3.46,2.59,7.22,4.58,11.15,5.97,4.45,1.58,9.11,2.39,13.77,2.44.3,0,.61,0,.91,0,4.67-.05,9.33-.86,13.78-2.44,3.93-1.39,7.69-3.38,11.15-5.97,1.6-1.2,3.13-2.52,4.59-3.98s2.78-2.99,3.98-4.59c2.59-3.46,4.58-7.22,5.97-11.15,1.58-4.45,2.39-9.11,2.44-13.78,0-.3,0-.61,0-.91-.05-4.67-.86-9.33-2.44-13.77-1.39-3.93-3.38-7.7-5.97-11.15-1.2-1.6-2.52-3.13-3.98-4.59-1.45-1.45-2.99-2.78-4.59-3.98l8.63-8.63c1.56,1.25,3.07,2.6,4.52,4.04,1.45,1.45,2.79,2.96,4.04,4.52,2.64,3.3,4.84,6.83,6.6,10.53,1.97,4.13,3.39,8.45,4.26,12.87.32,1.6.56,3.22.73,4.84.41,3.84.41,7.71,0,11.55-.17,1.62-.42,3.24-.73,4.84-.87,4.41-2.29,8.74-4.25,12.87-1.76,3.69-3.96,7.23-6.6,10.53-1.25,1.56-2.6,3.07-4.04,4.52-1.45,1.45-2.96,2.79-4.52,4.04-3.3,2.64-6.83,4.84-10.53,6.6-4.13,1.97-8.45,3.39-12.87,4.25-1.6.32-3.22.56-4.84.73-3.84.41-7.71.41-11.55,0-1.62-.17-3.24-.42-4.84-.73-4.42-.87-8.74-2.29-12.87-4.26-3.69-1.76-7.23-3.96-10.53-6.6-1.56-1.25-3.07-2.6-4.52-4.04-1.45-1.45-2.79-2.96-4.04-4.52-2.64-3.3-4.84-6.83-6.6-10.53-1.97-4.13-3.39-8.45-4.26-12.87-.32-1.6-.56-3.22-.73-4.84-.41-3.84-.41-7.71,0-11.55.17-1.62.42-3.24.73-4.84.87-4.41,2.29-8.74,4.26-12.87,1.76-3.69,3.96-7.23,6.6-10.53,1.25-1.56,2.6-3.07,4.04-4.52l47.09-47.09,8.56,8.56-47.09,47.09c-1.45,1.45-2.78,2.99-3.98,4.59-2.59,3.46-4.58,7.22-5.97,11.15-1.58,4.45-2.39,9.11-2.44,13.78,0,.3,0,.61,0,.91.05,4.67.86,9.33,2.44,13.77,1.39,3.93,3.38,7.69,5.97,11.15Z"/>
              <path class="i" d="M66.73,148.42c1.1,1.67,2.38,3.25,3.85,4.71,1.47,1.47,3.05,2.75,4.71,3.85,3.81,2.52,8.06,4.08,12.42,4.7,2.83.4,5.71.4,8.54,0,4.36-.62,8.62-2.18,12.42-4.7,1.67-1.1,3.25-2.38,4.71-3.85s2.75-3.05,3.85-4.71c2.52-3.8,4.08-8.06,4.7-12.42.4-2.83.4-5.71,0-8.54-.62-4.36-2.18-8.62-4.7-12.42-1.1-1.67-2.38-3.25-3.85-4.71-1.47-1.47-3.05-2.75-4.71-3.85l8.69-8.69c1.6,1.2,3.13,2.52,4.59,3.98,1.45,1.45,2.78,2.99,3.98,4.59,2.59,3.46,4.58,7.22,5.97,11.15,1.58,4.45,2.39,9.11,2.44,13.77,0,.3,0,.61,0,.91-.05,4.67-.86,9.33-2.44,13.78-1.39,3.93-3.38,7.69-5.97,11.15-1.2,1.6-2.52,3.13-3.98,4.59s-2.99,2.78-4.59,3.98c-3.46,2.59-7.22,4.58-11.15,5.97-4.45,1.58-9.11,2.39-13.78,2.44-.3,0-.61,0-.91,0-4.67-.05-9.33-.86-13.77-2.44-3.93-1.39-7.7-3.38-11.15-5.97-1.6-1.2-3.13-2.52-4.59-3.98s-2.78-2.99-3.98-4.59c-2.59-3.46-4.58-7.22-5.97-11.15-1.58-4.45-2.39-9.11-2.44-13.77,0-.3,0-.61,0-.91.05-4.67.86-9.33,2.44-13.78,1.39-3.93,3.38-7.69,5.97-11.15,1.2-1.6,2.52-3.13,3.98-4.59l47.09-47.09,8.56,8.56-47.09,47.09c-1.47,1.47-2.75,3.05-3.85,4.71-2.52,3.8-4.08,8.06-4.7,12.42-.4,2.83-.4,5.71,0,8.54.62,4.36,2.18,8.62,4.7,12.42Z"/>
              <path class="e" d="M125.92,106.35l-8.69,8.69c-1.1-1.67-2.39-3.25-3.85-4.71-1.47-1.47-3.04-2.75-4.71-3.85l8.69-8.69c.8.6,1.58,1.23,2.34,1.89.76.66,1.51,1.36,2.24,2.09,1.46,1.45,2.78,2.98,3.98,4.58Z"/>
              <path class="k" d="M158.24,138.06c-.16,1.72-.39,3.44-.69,5.14-.52,3.06-1.27,6.08-2.23,9.06-1.32,4.1-3.06,8.1-5.19,11.93-1.97,3.55-4.3,6.94-6.97,10.15-1.28,1.54-2.65,3.03-4.09,4.47-1.44,1.45-2.94,2.81-4.47,4.09-3.21,2.67-6.61,4.99-10.15,6.97-3.84,2.13-7.83,3.86-11.93,5.19-2.97.96-6,1.7-9.05,2.23-1.71.3-3.43.52-5.15.69-4.21.4-8.46.4-12.66,0-1.73-.17-3.44-.39-5.15-.69-3.06-.53-6.08-1.27-9.05-2.23-4.1-1.32-8.11-3.05-11.93-5.19-3.54-1.98-6.94-4.3-10.15-6.97-1.54-1.29-3.03-2.65-4.47-4.09-1.44-1.44-2.81-2.93-4.09-4.47-2.67-3.21-5-6.6-6.97-10.15-2.14-3.83-3.87-7.83-5.19-11.93-.96-2.97-1.7-6-2.23-9.06-.29-1.71-.52-3.42-.69-5.14-.4-4.21-.4-8.46,0-12.67.16-1.72.39-3.44.69-5.14.53-3.06,1.27-6.08,2.23-9.05,1.32-4.11,3.05-8.11,5.19-11.93,1.97-3.55,4.3-6.94,6.97-10.15,1.28-1.54,2.65-3.03,4.09-4.47l47.09-47.09,8.57,8.57-47.09,47.09c-1.45,1.45-2.79,2.95-4.05,4.51-2.64,3.3-4.84,6.83-6.59,10.53-1.97,4.13-3.39,8.46-4.26,12.87-.31,1.6-.56,3.21-.73,4.84-.41,3.84-.41,7.71,0,11.55.17,1.62.42,3.24.73,4.84.87,4.41,2.29,8.74,4.26,12.87,1.76,3.7,3.95,7.23,6.59,10.53,1.25,1.56,2.6,3.07,4.05,4.51,1.45,1.45,2.95,2.8,4.52,4.05,3.3,2.64,6.83,4.84,10.52,6.6,4.13,1.97,8.46,3.38,12.87,4.25,1.6.32,3.22.57,4.84.74,3.84.41,7.71.41,11.55,0,1.62-.17,3.24-.41,4.84-.74,4.42-.87,8.74-2.28,12.86-4.25,3.7-1.76,7.23-3.96,10.53-6.6,1.56-1.25,3.07-2.6,4.52-4.05,1.44-1.44,2.79-2.95,4.04-4.51,2.64-3.3,4.84-6.83,6.6-10.53,1.97-4.13,3.38-8.46,4.26-12.87.31-1.6.56-3.22.73-4.84.41-3.84.41-7.71,0-11.55-.17-1.62-.41-3.24-.73-4.84-.87-4.42-2.29-8.74-4.26-12.87-1.76-3.7-3.96-7.23-6.6-10.53-1.25-1.56-2.6-3.07-4.04-4.51-1.45-1.45-2.96-2.79-4.52-4.05l-17.32,17.32-4.81,4.82v-.02s-16.18,16.16-16.18,16.16h.01c-.08.09-.15.17-.22.25-.17.19-.33.39-.48.6-.03.04-.06.08-.08.13-.11.17-.21.34-.3.52h0c-.04.08-.08.17-.13.27-.06.12-.11.25-.16.37-.11.29-.2.58-.27.88-.01.09-.03.19-.05.28-.02.1-.03.2-.04.29-.06.48-.06.97,0,1.45,0,.09.02.19.04.29.01.09.03.19.05.29.04.19.1.38.15.56.03.1.06.19.1.28.17.46.41.9.69,1.32.2.29.43.57.69.83,1.18,1.18,2.73,1.77,4.28,1.77s3.09-.59,4.28-1.77c.06-.06.12-.12.17-.18.06-.06.12-.13.17-.19l11.75-11.76s0,.01.01.02c.03.08.07.15.1.23.15.31.28.62.4.94.06.16.13.31.18.48.15.4.27.8.38,1.21.05.16.09.32.13.48.08.33.15.66.22.99.03.17.06.33.08.5.41,2.49.31,5.04-.31,7.49-.04.16-.08.33-.13.49-.13.48-.29.97-.47,1.44-.06.16-.13.32-.19.48-.13.32-.27.63-.41.94-.27.57-.57,1.12-.9,1.66-.34.55-.7,1.07-1.09,1.58h0c-.16.21-.32.41-.49.61-.34.4-.69.78-1.06,1.16-.28.28-.57.55-.86.81-.2.17-.4.34-.6.5-1.11.9-2.3,1.64-3.55,2.24-4.93,2.35-10.72,2.35-15.66,0-1.25-.6-2.44-1.34-3.56-2.24-.2-.16-.4-.33-.59-.5-.1-.09-.2-.17-.29-.27-.2-.17-.38-.36-.57-.55-.66-.66-1.25-1.35-1.79-2.08-.69-.93-1.27-1.92-1.76-2.94-.03-.08-.08-.15-.11-.23-.14-.31-.27-.62-.4-.94-.06-.15-.12-.32-.17-.48-.15-.4-.27-.8-.39-1.2-.04-.17-.09-.33-.13-.49-.08-.33-.16-.66-.22-.99-.03-.17-.06-.33-.09-.5-.41-2.48-.31-5.04.31-7.49.03-.16.08-.32.13-.49.14-.48.29-.97.48-1.44.06-.16.13-.32.19-.48.13-.31.27-.62.41-.93.27-.57.57-1.13.9-1.67.73-1.19,1.61-2.32,2.65-3.35l47.09-47.09,8.56,8.56,4.28,4.28c1.44,1.44,2.81,2.93,4.09,4.47,2.67,3.21,5,6.6,6.97,10.15,2.13,3.83,3.87,7.83,5.19,11.93.95,2.97,1.7,5.99,2.23,9.05.3,1.71.53,3.42.69,5.14.4,4.21.4,8.46,0,12.67Z"/>
              <path class="f" d="M134.55,97.72h0c-1.25-1.57-2.6-3.07-4.04-4.52h0c-.07-.08-.14-.15-.21-.21-.29-.29-.58-.58-.88-.85-.74-.7-1.49-1.37-2.26-2.02-.38-.33-.77-.64-1.16-.96l8.8-8.8,4.28,4.28c1.44,1.44,2.81,2.93,4.09,4.47l-8.61,8.61Z"/>
              <path class="j" d="M121.94,127.45c.4,2.83.4,5.71,0,8.54-.62,4.36-2.18,8.62-4.7,12.42-1.1,1.67-2.38,3.25-3.85,4.71s-3.05,2.75-4.71,3.85c-3.8,2.52-8.06,4.09-12.42,4.7-2.83.4-5.71.4-8.54,0-4.36-.62-8.62-2.18-12.42-4.7-1.67-1.1-3.24-2.38-4.71-3.85-1.47-1.47-2.75-3.05-3.85-4.71-2.52-3.81-4.08-8.06-4.7-12.42-.4-2.83-.4-5.71,0-8.54.62-4.36,2.18-8.62,4.7-12.42,1.1-1.67,2.39-3.24,3.85-4.71l47.09-47.09,8.56,8.56-47.09,47.09h0c-1.03,1.03-1.91,2.16-2.64,3.35-.33.54-.63,1.1-.9,1.66-.15.31-.28.62-.41.93-.06.16-.13.32-.19.47-.18.48-.34.96-.47,1.44-.05.16-.09.33-.13.49-.62,2.45-.72,5-.31,7.49.03.17.06.33.09.5.06.33.14.66.22.99.04.16.08.33.13.49.12.41.24.81.39,1.21.06.16.12.32.18.48.12.32.26.63.4.94.04.08.07.15.11.23.49,1.02,1.07,2.01,1.76,2.94.53.73,1.13,1.42,1.79,2.08.19.19.38.37.57.55.1.09.19.18.29.26.2.17.4.34.6.5,1.11.89,2.3,1.64,3.55,2.23,4.94,2.35,10.72,2.35,15.66,0,1.25-.6,2.44-1.34,3.55-2.24.2-.16.4-.33.6-.5.29-.26.58-.53.86-.81.38-.38.73-.76,1.07-1.16.17-.2.33-.4.49-.6,0,0,0,0,0,0,.39-.51.76-1.04,1.09-1.58.33-.54.63-1.1.9-1.66.15-.31.28-.62.41-.93.06-.16.13-.32.19-.47.18-.48.34-.96.47-1.44.05-.16.09-.33.13-.49.62-2.45.72-5,.31-7.49-.03-.17-.06-.33-.09-.5-.06-.33-.14-.66-.22-.99-.04-.16-.08-.33-.13-.49-.12-.41-.24-.81-.39-1.21-.06-.16-.12-.32-.18-.48-.12-.32-.26-.63-.4-.94-.04-.08-.07-.16-.11-.23,0,0,0-.01,0-.02l-11.76,11.76h0c-.05.07-.11.13-.16.19-.06.06-.11.12-.17.18-2.36,2.36-6.2,2.36-8.56,0-.26-.26-.49-.54-.69-.82-.29-.41-.52-.86-.69-1.31h0c-.03-.09-.07-.19-.1-.28-.06-.19-.11-.38-.15-.57-.02-.09-.04-.19-.06-.29-.02-.1-.03-.19-.04-.29-.06-.48-.06-.97,0-1.45.01-.1.03-.19.04-.29.02-.1.04-.19.06-.29.06-.3.15-.59.27-.88.05-.12.1-.25.15-.37,0,0,0,0,0,0,.04-.09.08-.18.13-.27,0,0,0,0,0,0,.09-.18.19-.35.3-.51.03-.04.06-.08.09-.13.14-.21.3-.41.48-.6t0,0c.07-.08.14-.15.21-.23h-.01s16.16-16.18,16.16-16.18h.01s4.81-4.8,4.81-4.8c1.67,1.1,3.25,2.39,4.71,3.85s2.75,3.05,3.85,4.71c2.52,3.81,4.09,8.06,4.7,12.42Z"/>
            </g>
          </g>
        </g>
      </g>
    </g>
  </g>
</svg>