<?xml version="1.0" encoding="UTF-8"?>
<svg xmlns="http://www.w3.org/2000/svg" viewBox="0 0 311.72 311.72">
  <defs>
    <style>
      .d {
        fill: none;
      }

      .e {
        fill: #5f2db8;
      }

      .e, .f {
        mix-blend-mode: multiply;
        opacity: .3;
      }

      .f {
        fill: #af366a;
      }

      .g {
        isolation: isolate;
      }

      .h {
        fill: #7826eb;
      }

      .i {
        fill: #fff;
      }

      .j {
        fill: #f83289;
      }
    </style>
  </defs>
  <g class="g">
    <g id="b" data-name="Layer_2">
      <g id="c" data-name="Layer_1">
        <g>
          <rect class="d" width="311.72" height="311.72"/>
          <g>
            <path class="i" d="M107.37,211.84c1.71,2.28,3.6,4.48,5.68,6.55s4.27,3.97,6.55,5.68c4.94,3.7,10.32,6.54,15.93,8.53,6.35,2.26,13.01,3.42,19.68,3.49.43,0,.86,0,1.3,0,6.67-.07,13.33-1.23,19.68-3.49,5.61-1.99,10.99-4.84,15.93-8.53,2.28-1.71,4.48-3.6,6.55-5.68,2.08-2.08,3.97-4.27,5.68-6.55,3.7-4.94,6.54-10.32,8.53-15.93,2.25-6.35,3.42-13.01,3.49-19.68,0-.43,0-.86,0-1.3-.07-6.67-1.23-13.33-3.49-19.68-1.99-5.62-4.83-10.99-8.53-15.93-1.71-2.28-3.6-4.48-5.68-6.55-2.08-2.08-4.27-3.97-6.55-5.68l12.33-12.33c2.23,1.78,4.39,3.71,6.45,5.78,2.07,2.07,3.99,4.22,5.78,6.45,3.77,4.71,6.91,9.76,9.43,15.04,2.81,5.9,4.84,12.08,6.08,18.38.45,2.29.8,4.6,1.05,6.91.58,5.48.58,11.02,0,16.5-.24,2.32-.59,4.62-1.05,6.91-1.24,6.31-3.27,12.49-6.08,18.38-2.51,5.28-5.66,10.33-9.43,15.04-1.78,2.23-3.71,4.39-5.78,6.45-2.07,2.07-4.22,3.99-6.45,5.78-4.71,3.77-9.76,6.91-15.04,9.43-5.9,2.81-12.08,4.84-18.38,6.08-2.29.45-4.6.8-6.91,1.05-5.48.58-11.02.58-16.5,0-2.32-.24-4.62-.59-6.91-1.05-6.31-1.24-12.49-3.27-18.38-6.08-5.28-2.51-10.33-5.66-15.04-9.43-2.23-1.78-4.39-3.71-6.45-5.78-2.07-2.07-3.99-4.22-5.78-6.45-3.77-4.71-6.91-9.76-9.43-15.04-2.81-5.9-4.84-12.08-6.08-18.38-.45-2.29-.8-4.6-1.05-6.91-.58-5.48-.58-11.02,0-16.5.24-2.32.59-4.62,1.05-6.91,1.24-6.31,3.27-12.49,6.08-18.38,2.51-5.28,5.66-10.33,9.43-15.04,1.78-2.23,3.71-4.39,5.78-6.45l67.27-67.27,12.23,12.23-67.27,67.27c-2.08,2.08-3.97,4.27-5.68,6.55-3.7,4.94-6.54,10.32-8.53,15.93-2.25,6.35-3.42,13.01-3.49,19.68,0,.43,0,.86,0,1.3.07,6.67,1.23,13.33,3.49,19.68,1.99,5.62,4.83,10.99,8.53,15.93Z"/>
            <path class="h" d="M119.78,199.43c1.57,2.38,3.41,4.64,5.5,6.73,2.09,2.09,4.35,3.93,6.73,5.5,5.44,3.6,11.51,5.84,17.75,6.72,4.04.57,8.16.57,12.2,0,6.23-.88,12.31-3.12,17.75-6.72,2.38-1.57,4.64-3.41,6.73-5.5s3.93-4.35,5.5-6.73c3.6-5.44,5.84-11.51,6.72-17.75.57-4.05.57-8.16,0-12.2-.88-6.23-3.12-12.31-6.72-17.75-1.57-2.38-3.41-4.64-5.5-6.73-2.09-2.09-4.35-3.93-6.73-5.5l12.41-12.41c2.28,1.71,4.48,3.6,6.55,5.68,2.08,2.08,3.97,4.27,5.68,6.55,3.7,4.94,6.54,10.32,8.53,15.93,2.26,6.35,3.42,13.01,3.49,19.68,0,.43,0,.86,0,1.3-.07,6.67-1.23,13.33-3.49,19.68-1.99,5.61-4.84,10.99-8.53,15.93-1.71,2.28-3.6,4.48-5.68,6.55-2.08,2.08-4.27,3.97-6.55,5.68-4.94,3.7-10.32,6.54-15.93,8.53-6.35,2.25-13.01,3.42-19.68,3.49-.43,0-.86,0-1.3,0-6.67-.07-13.33-1.23-19.68-3.49-5.62-1.99-10.99-4.83-15.93-8.53-2.28-1.71-4.48-3.6-6.55-5.68s-3.97-4.27-5.68-6.55c-3.7-4.94-6.54-10.32-8.53-15.93-2.26-6.35-3.42-13.01-3.49-19.68,0-.43,0-.86,0-1.3.07-6.67,1.23-13.33,3.49-19.68,1.99-5.61,4.84-10.99,8.53-15.93,1.71-2.28,3.6-4.48,5.68-6.55l67.27-67.27,12.23,12.23-67.27,67.27c-2.09,2.09-3.93,4.35-5.5,6.73-3.6,5.44-5.84,11.51-6.72,17.75-.57,4.05-.57,8.16,0,12.2.88,6.23,3.12,12.31,6.72,17.75Z"/>
            <path class="e" d="M204.35,139.33l-12.41,12.41c-1.57-2.38-3.41-4.64-5.5-6.73-2.1-2.1-4.35-3.93-6.73-5.5l12.41-12.41c1.14.86,2.26,1.76,3.35,2.7,1.09.95,2.16,1.94,3.2,2.98,2.08,2.07,3.97,4.26,5.68,6.55Z"/>
            <path class="j" d="M250.52,184.63c-.23,2.46-.56,4.91-.99,7.35-.75,4.37-1.82,8.69-3.18,12.94-1.89,5.86-4.37,11.57-7.42,17.04-2.82,5.07-6.14,9.92-9.96,14.5-1.83,2.2-3.78,4.33-5.84,6.39-2.06,2.07-4.2,4.01-6.39,5.85-4.58,3.81-9.44,7.13-14.5,9.96-5.48,3.05-11.19,5.52-17.05,7.41-4.25,1.37-8.57,2.43-12.93,3.19-2.44.43-4.9.75-7.36.99-6.02.57-12.08.57-18.09,0-2.47-.24-4.92-.56-7.36-.99-4.37-.76-8.69-1.82-12.93-3.19-5.86-1.89-11.58-4.36-17.05-7.41-5.06-2.83-9.92-6.15-14.5-9.96-2.2-1.84-4.33-3.78-6.39-5.85-2.06-2.06-4.01-4.19-5.84-6.39-3.82-4.58-7.14-9.43-9.96-14.5-3.06-5.47-5.53-11.18-7.42-17.04-1.37-4.25-2.43-8.57-3.19-12.94-.42-2.44-.75-4.89-.98-7.35-.57-6.02-.57-12.08,0-18.1.23-2.46.56-4.91.98-7.35.76-4.37,1.82-8.69,3.19-12.93,1.89-5.87,4.36-11.58,7.42-17.05,2.82-5.07,6.14-9.92,9.96-14.5,1.83-2.2,3.78-4.33,5.84-6.39l67.27-67.28,12.24,12.24-67.28,67.27c-2.07,2.07-3.99,4.22-5.78,6.45-3.77,4.71-6.91,9.76-9.42,15.04-2.81,5.9-4.84,12.08-6.08,18.39-.45,2.28-.8,4.59-1.05,6.91-.58,5.48-.58,11.02,0,16.5.25,2.32.6,4.63,1.05,6.92,1.24,6.3,3.27,12.49,6.08,18.38,2.51,5.28,5.65,10.33,9.42,15.04,1.79,2.23,3.71,4.39,5.78,6.45,2.07,2.07,4.22,4,6.46,5.78,4.71,3.77,9.76,6.91,15.03,9.43,5.9,2.81,12.08,4.83,18.39,6.07,2.29.46,4.6.81,6.91,1.05,5.49.58,11.02.58,16.5,0,2.32-.24,4.63-.59,6.92-1.05,6.31-1.24,12.49-3.26,18.38-6.07,5.28-2.52,10.33-5.66,15.04-9.43,2.23-1.78,4.39-3.71,6.46-5.78,2.06-2.06,3.99-4.22,5.77-6.45,3.77-4.71,6.91-9.76,9.43-15.04,2.81-5.9,4.83-12.08,6.08-18.38.45-2.29.8-4.6,1.04-6.92.58-5.48.58-11.02,0-16.5-.24-2.32-.59-4.63-1.04-6.91-1.24-6.31-3.27-12.49-6.08-18.39-2.52-5.28-5.66-10.33-9.43-15.04-1.78-2.23-3.71-4.38-5.77-6.45-2.07-2.07-4.23-3.99-6.46-5.78l-24.74,24.74-6.87,6.88-.02-.03-23.09,23.09.02.02c-.11.11-.21.22-.31.33-.25.27-.47.56-.68.85-.04.06-.08.12-.12.18-.16.24-.3.49-.43.74h-.01c-.06.12-.12.25-.18.38-.08.17-.16.35-.23.53-.16.41-.28.83-.38,1.26-.02.13-.05.27-.07.4-.03.14-.05.28-.06.42-.09.68-.09,1.38,0,2.07.01.13.03.27.06.41.02.13.05.27.07.41.06.27.14.54.22.8.05.14.09.27.14.4.25.66.58,1.29.99,1.88.29.41.62.81.99,1.18,1.69,1.69,3.9,2.53,6.12,2.53s4.42-.84,6.11-2.53c.08-.09.17-.17.24-.26.09-.09.17-.18.25-.27l16.79-16.8s.01.02.02.03c.05.11.1.22.15.33.21.44.4.89.57,1.34.09.23.18.45.26.68.21.57.39,1.15.55,1.73.07.23.13.46.19.69.12.47.22.94.32,1.41.04.24.09.47.12.71.59,3.55.45,7.2-.44,10.7-.06.23-.12.47-.19.7-.19.69-.42,1.38-.67,2.06-.09.23-.18.46-.27.68-.18.45-.38.9-.59,1.34-.39.81-.82,1.6-1.29,2.37-.48.78-1,1.53-1.56,2.26h0c-.23.3-.46.59-.7.87-.48.57-.98,1.12-1.52,1.66-.4.4-.81.79-1.23,1.16-.28.24-.57.48-.86.71-1.59,1.28-3.29,2.35-5.07,3.2-7.05,3.36-15.32,3.36-22.37,0-1.78-.85-3.49-1.92-5.08-3.2-.28-.23-.57-.47-.85-.71-.14-.13-.28-.25-.42-.38-.28-.25-.55-.51-.81-.78-.94-.94-1.79-1.93-2.56-2.97-.98-1.33-1.82-2.74-2.51-4.2-.05-.11-.11-.22-.16-.33-.2-.44-.39-.89-.57-1.34-.09-.22-.17-.45-.25-.68-.21-.57-.39-1.14-.56-1.72-.06-.24-.13-.47-.18-.7-.12-.47-.23-.94-.32-1.41-.05-.24-.09-.47-.13-.71-.59-3.55-.44-7.2.45-10.7.05-.23.12-.46.18-.7.2-.69.42-1.38.68-2.06.09-.23.18-.45.27-.68.18-.45.38-.89.59-1.33.38-.81.81-1.61,1.29-2.38,1.04-1.7,2.3-3.31,3.78-4.79l67.27-67.27,12.23,12.23,6.12,6.12c2.06,2.06,4.01,4.19,5.84,6.39,3.82,4.58,7.14,9.43,9.96,14.5,3.05,5.47,5.53,11.18,7.42,17.05,1.36,4.24,2.43,8.56,3.18,12.93.43,2.44.76,4.89.99,7.35.57,6.02.57,12.08,0,18.1Z"/>
            <path class="f" d="M216.68,127h0c-1.78-2.24-3.71-4.39-5.77-6.46h-.01c-.1-.11-.2-.21-.3-.3-.41-.42-.83-.83-1.26-1.22-1.06-1-2.13-1.96-3.23-2.89-.55-.47-1.1-.92-1.66-1.37l12.57-12.57,6.12,6.12c2.06,2.06,4.01,4.19,5.84,6.39l-12.3,12.3Z"/>
            <path class="i" d="M198.65,169.49c.57,4.04.57,8.16,0,12.2-.88,6.23-3.12,12.31-6.72,17.75-1.57,2.38-3.41,4.64-5.5,6.73s-4.35,3.93-6.73,5.5c-5.44,3.6-11.51,5.84-17.75,6.72-4.05.57-8.16.57-12.2,0-6.23-.88-12.31-3.12-17.75-6.72-2.38-1.57-4.64-3.41-6.73-5.5-2.09-2.09-3.93-4.35-5.5-6.73-3.6-5.44-5.83-11.51-6.72-17.75-.57-4.04-.57-8.16,0-12.2.88-6.23,3.12-12.31,6.72-17.75,1.57-2.38,3.41-4.64,5.5-6.73l67.27-67.27,12.23,12.23-67.27,67.27h0c-1.47,1.47-2.73,3.08-3.78,4.78-.48.77-.9,1.57-1.29,2.38-.21.44-.41.89-.59,1.34-.09.22-.18.45-.27.68-.26.68-.48,1.37-.68,2.06-.07.23-.13.47-.19.7-.89,3.5-1.03,7.15-.44,10.7.04.24.08.47.13.71.09.47.2.94.31,1.41.06.23.12.47.19.7.16.58.35,1.16.55,1.72.08.23.17.45.26.68.18.45.37.9.57,1.34.05.11.1.22.16.33.7,1.46,1.53,2.86,2.52,4.2.76,1.04,1.61,2.03,2.55,2.97.27.27.54.53.82.78.14.13.28.25.42.38.28.25.57.49.85.72,1.59,1.28,3.29,2.34,5.08,3.19,7.05,3.36,15.32,3.36,22.37,0,1.78-.85,3.49-1.91,5.07-3.19.29-.23.57-.47.85-.72.42-.37.83-.76,1.23-1.16.54-.54,1.04-1.09,1.52-1.66.24-.28.47-.57.7-.86,0,0,0,0,0,0,.56-.73,1.08-1.49,1.56-2.26.48-.77.9-1.57,1.29-2.38.21-.44.41-.89.59-1.34.09-.22.18-.45.27-.68.25-.68.48-1.37.68-2.06.07-.23.13-.47.19-.7.89-3.5,1.03-7.15.44-10.7-.04-.24-.08-.47-.13-.71-.09-.47-.2-.94-.31-1.41-.06-.23-.12-.47-.19-.7-.16-.58-.35-1.16-.55-1.72-.08-.23-.17-.45-.26-.68-.18-.45-.37-.9-.57-1.34-.05-.11-.1-.22-.16-.33,0,0,0-.02-.01-.03l-16.8,16.8h-.01c-.08.1-.15.19-.23.27-.08.09-.16.17-.25.26-3.38,3.38-8.85,3.38-12.23,0-.37-.37-.7-.76-.99-1.18-.41-.59-.74-1.22-.99-1.88h0c-.05-.13-.1-.26-.14-.4-.09-.27-.16-.54-.22-.81-.03-.13-.06-.27-.08-.41-.02-.14-.04-.27-.06-.41-.08-.69-.08-1.38,0-2.07.02-.14.04-.28.06-.41.02-.14.05-.27.08-.41.09-.43.22-.85.38-1.26.07-.18.14-.35.22-.53,0,0,0,0,0,0,.06-.13.12-.25.19-.38,0,0,0,0,0,0,.13-.25.28-.49.43-.74.04-.06.08-.12.12-.18.21-.3.43-.58.68-.85t0,0c.1-.11.2-.22.3-.32l-.02-.02,23.09-23.09.02.02,6.87-6.87c2.38,1.57,4.64,3.41,6.73,5.5s3.93,4.35,5.5,6.73c3.6,5.44,5.84,11.51,6.72,17.75Z"/>
          </g>
        </g>
      </g>
    </g>
  </g>
</svg>